<svg width="87" height="28" viewBox="0 0 87 28" fill="none" xmlns="http://www.w3.org/2000/svg">
<g clip-path="url(#clip0)">
<path d="M86.9921 12.3761H84.7682V11.7476V9.3894H81.9837V12.3761H79.7598V14.7467H81.9837V23.4454H84.7682V14.7467H86.9921V12.3761Z" fill="#1CAE4C"/>
<path d="M10.7565 17.2419C10.7565 19.6747 9.43202 21.0374 7.3313 21.0374C5.23058 21.0374 3.90608 19.6747 3.90608 17.2419V7.82764H0.992188V17.5343C0.992188 21.529 3.70895 23.7565 7.3313 23.7565C10.9536 23.7565 13.6766 21.529 13.6766 17.5343V7.82764H10.7565V17.2419Z" fill="black" fill-opacity="0.7"/>
<path d="M21.1867 21.1556C20.7738 21.1558 20.365 21.0722 19.9847 20.9096C19.6044 20.7471 19.2604 20.509 18.9731 20.2095C18.6857 19.91 18.4609 19.5551 18.312 19.1661C18.1632 18.7771 18.0933 18.3618 18.1065 17.9449C18.1065 17.1198 18.431 16.3285 19.0087 15.7451C19.5863 15.1616 20.3698 14.8338 21.1867 14.8338C22.0036 14.8338 22.7871 15.1616 23.3648 15.7451C23.9424 16.3285 24.2669 17.1198 24.2669 17.9449C24.2801 18.3618 24.2102 18.7771 24.0614 19.1661C23.9125 19.5551 23.6877 19.91 23.4004 20.2095C23.113 20.509 22.769 20.7471 22.3887 20.9096C22.0084 21.0722 21.5996 21.1558 21.1867 21.1556ZM22.0738 12.0961C21.3365 12.0845 20.6071 12.2506 19.9461 12.5806C19.285 12.9107 18.7114 13.3951 18.2728 13.9938V12.3761H15.4883V28H18.2728V22.0827C18.6977 22.6193 19.2395 23.0496 19.8561 23.3399C20.4727 23.6302 21.1473 23.7728 21.8274 23.7565C24.7475 23.7565 27.1069 21.4605 27.1069 17.9138C27.1069 14.2303 24.8091 12.0649 22.0738 12.0649" fill="black" fill-opacity="0.7"/>
<path d="M35.9041 14.1618C33.3167 13.6267 32.1709 12.9174 32.1709 11.7289C32.1709 10.5405 33.4029 10.1049 34.7582 10.1049C35.5864 10.0753 36.3997 10.3334 37.0622 10.8361C37.7248 11.3389 38.1966 12.0559 38.3991 12.8676L40.6969 11.5298C39.7297 8.85425 37.7153 7.51025 34.8199 7.51025C31.5979 7.51025 29.3863 9.20892 29.3863 11.7974C29.3863 14.3858 31.4193 15.9289 34.2223 16.4827C36.7234 16.9991 38.0479 17.6214 38.0479 19.0711C38.0479 20.3156 36.9206 21.168 35.1772 21.168C32.8362 21.168 31.6842 19.7618 31.2653 17.4347L28.7148 18.76C29.2878 21.616 31.3638 23.7378 35.208 23.7378C38.8118 23.7378 40.9741 21.4854 40.9741 18.9405C40.9741 16.3956 39.2985 14.8587 35.9164 14.1431" fill="#1CAE4C"/>
<path d="M47.8918 21.1554C46.21 21.1554 44.9717 19.911 44.9717 17.9448C44.9717 15.9786 46.2531 14.7279 47.8918 14.7279C48.4911 14.7103 49.0806 14.8843 49.5762 15.2251C50.0718 15.5659 50.4482 16.056 50.6517 16.6257L52.9249 15.1074C52.1548 13.2097 50.3437 12.0959 47.9103 12.0959C47.1463 12.0788 46.3869 12.2185 45.678 12.5067C44.9691 12.7949 44.3256 13.2255 43.7864 13.7724C43.2472 14.3194 42.8236 14.9712 42.5413 15.6884C42.259 16.4056 42.1239 17.1732 42.1441 17.9448C42.1102 18.7196 42.236 19.493 42.5135 20.2162C42.791 20.9393 43.2142 21.5963 43.7563 22.1456C44.2984 22.6949 44.9476 23.1244 45.6626 23.4071C46.3777 23.6897 47.1431 23.8192 47.9103 23.7874C48.9813 23.8267 50.0399 23.5444 50.9522 22.9763C51.8644 22.4081 52.5895 21.5796 53.0358 20.5954L50.7872 19.127C50.1712 20.4212 49.3457 21.1554 47.8918 21.1554Z" fill="#1CAE4C"/>
<path d="M57.5521 14.143V12.3759H54.7676V23.4452H57.5521V17.9821C57.5521 16.1154 58.5439 14.6968 60.2011 14.6968C60.5096 14.6958 60.8159 14.7485 61.1067 14.8523L61.5502 12.2017C61.243 12.1063 60.9229 12.0601 60.6015 12.0648C59.941 12.0596 59.2942 12.2549 58.745 12.6255C58.1958 12.996 57.7694 13.5247 57.5213 14.143" fill="#1CAE4C"/>
<path d="M65.7689 12.376H62.9844V23.4453H65.7689V12.376Z" fill="#1CAE4C"/>
<path d="M73.5434 21.1556C73.1305 21.1558 72.7217 21.0722 72.3414 20.9096C71.9611 20.7471 71.6171 20.509 71.3297 20.2095C71.0424 19.91 70.8176 19.5551 70.6687 19.1661C70.5198 18.7771 70.4499 18.3618 70.4632 17.9449C70.4632 17.1198 70.7877 16.3285 71.3653 15.7451C71.943 15.1616 72.7265 14.8338 73.5434 14.8338C74.3603 14.8338 75.1438 15.1616 75.7214 15.7451C76.2991 16.3285 76.6236 17.1198 76.6236 17.9449C76.6368 18.3618 76.5669 18.7771 76.4181 19.1661C76.2692 19.5551 76.0444 19.91 75.757 20.2095C75.4697 20.509 75.1256 20.7471 74.7454 20.9096C74.3651 21.0722 73.9563 21.1558 73.5434 21.1556ZM74.4305 12.0961C73.6917 12.0769 72.9591 12.2363 72.2936 12.561C71.6282 12.8857 71.0492 13.3663 70.6048 13.9627V12.3761H67.8203V28H70.6048V22.0827C71.0297 22.6193 71.5716 23.0496 72.1881 23.3399C72.8047 23.6302 73.4793 23.7728 74.1594 23.7565C77.0795 23.7565 79.439 21.4605 79.439 17.9138C79.439 14.2303 77.1411 12.0649 74.4059 12.0649" fill="#1CAE4C"/>
<path d="M64.3777 0C64.0743 0 63.7777 0.0908668 63.5255 0.26111C63.2732 0.431353 63.0766 0.673325 62.9605 0.956429C62.8444 1.23953 62.814 1.55105 62.8732 1.85159C62.9324 2.15213 63.0785 2.4282 63.293 2.64488C63.5076 2.86156 63.7809 3.00911 64.0785 3.0689C64.376 3.12868 64.6844 3.098 64.9647 2.98073C65.245 2.86346 65.4846 2.66488 65.6532 2.4101C65.8217 2.15531 65.9117 1.85576 65.9117 1.54933C65.9117 1.13842 65.7501 0.744345 65.4624 0.453789C65.1747 0.163233 64.7845 0 64.3777 0" fill="#1CAE4C"/>
</g>
<defs>
<clipPath id="clip0">
<rect width="86" height="28" fill="white" transform="translate(0.992188)"/>
</clipPath>
</defs>
</svg>
